{
  "accessors": [
    {
      "name": "Basic_Wall_Single_brick_Masonry__test_bed___247658__1_0_positions",
      "componentType": 5126,
      "count": 36,
      "min": [
        -1.350781798362732,
        0,
        -3.4329030513763428
      ],
      "max": [
        0.9792183041572571,
        1.9900000095367432,
        -3.3329029083251953
      ],
      "type": "VEC3",
      "bufferView": 0,
      "byteOffset": 0
    },
    {
      "name": "Basic_Wall_Single_brick_Masonry__test_bed___247658__1_0_normals",
      "componentType": 5126,
      "count": 36,
      "min": [
        -1,
        -1,
        -1
      ],
      "max": [
        1,
        1,
        1
      ],
      "type": "VEC3",
      "bufferView": 1,
      "byteOffset": 0
    },
    {
      "name": "Basic_Wall_Single_brick_Masonry__test_bed___247658__1_0_texcoords",
      "componentType": 5126,
      "count": 36,
      "min": [
        -7.808398723602295,
        -5.528871536254883
      ],
      "max": [
        7.808398723602295,
        1.1640419960021973
      ],
      "type": "VEC2",
      "bufferView": 2,
      "byteOffset": 0
    },
    {
      "name": "Basic_Wall_Single_brick_Masonry__test_bed___247658__1_0_indices",
      "componentType": 5123,
      "count": 72,
      "min": [
        0
      ],
      "max": [
        35
      ],
      "type": "SCALAR",
      "bufferView": 3,
      "byteOffset": 0
    },
    {
      "name": "Basic_Wall_Single_brick_Masonry__test_bed___247755__1_0_positions",
      "componentType": 5126,
      "count": 32,
      "min": [
        2.04921817779541,
        0,
        -3.3329029083251953
      ],
      "max": [
        2.1492183208465576,
        1.9900000095367432,
        -1.9329031705856323
      ],
      "type": "VEC3",
      "bufferView": 0,
      "byteOffset": 432
    },
    {
      "name": "Basic_Wall_Single_brick_Masonry__test_bed___247755__1_0_normals",
      "componentType": 5126,
      "count": 32,
      "min": [
        -1,
        -1,
        -1
      ],
      "max": [
        1,
        1,
        1
      ],
      "type": "VEC3",
      "bufferView": 1,
      "byteOffset": 432
    },
    {
      "name": "Basic_Wall_Single_brick_Masonry__test_bed___247755__1_0_texcoords",
      "componentType": 5126,
      "count": 32,
      "min": [
        -4.757217884063721,
        -5.528871536254883
      ],
      "max": [
        4.757217884063721,
        1.1640419960021973
      ],
      "type": "VEC2",
      "bufferView": 2,
      "byteOffset": 288
    },
    {
      "name": "Basic_Wall_Single_brick_Masonry__test_bed___247755__1_0_indices",
      "componentType": 5123,
      "count": 60,
      "min": [
        0
      ],
      "max": [
        31
      ],
      "type": "SCALAR",
      "bufferView": 3,
      "byteOffset": 144
    },
    {
      "name": "Rectangular_Column_Test_bed_column__248063__1_0_positions",
      "componentType": 5126,
      "count": 24,
      "min": [
        -1.350781798362732,
        0,
        -3.3329029083251953
      ],
      "max": [
        -1.1078191995620728,
        1.9900000095367432,
        -3.092440605163574
      ],
      "type": "VEC3",
      "bufferView": 0,
      "byteOffset": 816
    },
    {
      "name": "Rectangular_Column_Test_bed_column__248063__1_0_normals",
      "componentType": 5126,
      "count": 24,
      "min": [
        -1,
        -1,
        -1
      ],
      "max": [
        1,
        1,
        1
      ],
      "type": "VEC3",
      "bufferView": 1,
      "byteOffset": 816
    },
    {
      "name": "Rectangular_Column_Test_bed_column__248063__1_0_texcoords",
      "componentType": 5126,
      "count": 24,
      "min": [
        -2.2393782138824463,
        -5.528871536254883
      ],
      "max": [
        1.788057565689087,
        1.5577428340911865
      ],
      "type": "VEC2",
      "bufferView": 2,
      "byteOffset": 544
    },
    {
      "name": "Rectangular_Column_Test_bed_column__248063__1_0_indices",
      "componentType": 5123,
      "count": 36,
      "min": [
        0
      ],
      "max": [
        23
      ],
      "type": "SCALAR",
      "bufferView": 3,
      "byteOffset": 264
    },
    {
      "name": "Rectangular_Column_Test_bed_column__248351__1_0_positions",
      "componentType": 5126,
      "count": 24,
      "min": [
        0.14921826124191284,
        0,
        -3.3329029083251953
      ],
      "max": [
        0.48921826481819153,
        1.9900000095367432,
        -3.092440605163574
      ],
      "type": "VEC3",
      "bufferView": 0,
      "byteOffset": 1104
    },
    {
      "name": "Rectangular_Column_Test_bed_column__248351__1_0_normals",
      "componentType": 5126,
      "count": 24,
      "min": [
        -1,
        -1,
        -1
      ],
      "max": [
        1,
        1,
        1
      ],
      "type": "VEC3",
      "bufferView": 1,
      "byteOffset": 1104
    },
    {
      "name": "Rectangular_Column_Test_bed_column__248351__1_0_texcoords",
      "componentType": 5126,
      "count": 24,
      "min": [
        -2.5577428340911865,
        -5.528871536254883
      ],
      "max": [
        6.200787544250488,
        1.5577428340911865
      ],
      "type": "VEC2",
      "bufferView": 2,
      "byteOffset": 736
    },
    {
      "name": "Rectangular_Column_Test_bed_column__248351__1_0_indices",
      "componentType": 5123,
      "count": 36,
      "min": [
        0
      ],
      "max": [
        23
      ],
      "type": "SCALAR",
      "bufferView": 3,
      "byteOffset": 336
    },
    {
      "name": "Rectangular_Column_Test_bed_column__255862__1_0_positions",
      "componentType": 5126,
      "count": 48,
      "min": [
        1.8098788261413574,
        0,
        -2.271653175354004
      ],
      "max": [
        2.149878740310669,
        1.9900000095367432,
        -1.9316530227661133
      ],
      "type": "VEC3",
      "bufferView": 0,
      "byteOffset": 1392
    },
    {
      "name": "Rectangular_Column_Test_bed_column__255862__1_0_normals",
      "componentType": 5126,
      "count": 48,
      "min": [
        -1,
        -1,
        -1
      ],
      "max": [
        1,
        1,
        1
      ],
      "type": "VEC3",
      "bufferView": 1,
      "byteOffset": 1392
    },
    {
      "name": "Rectangular_Column_Test_bed_column__255862__1_0_texcoords",
      "componentType": 5126,
      "count": 48,
      "min": [
        -4.757217884063721,
        -5.528871536254883
      ],
      "max": [
        4.757217884063721,
        1.5577428340911865
      ],
      "type": "VEC2",
      "bufferView": 2,
      "byteOffset": 928
    },
    {
      "name": "Rectangular_Column_Test_bed_column__255862__1_0_indices",
      "componentType": 5123,
      "count": 84,
      "min": [
        0
      ],
      "max": [
        47
      ],
      "type": "SCALAR",
      "bufferView": 3,
      "byteOffset": 408
    },
    {
      "name": "Basic_Wall_Single_brick_Masonry__test_bed___260147__1_0_positions",
      "componentType": 5126,
      "count": 28,
      "min": [
        -1.4507818222045898,
        0,
        -2.2779030799865723
      ],
      "max": [
        -1.350781798362732,
        1.9900000095367432,
        -1.9329031705856323
      ],
      "type": "VEC3",
      "bufferView": 0,
      "byteOffset": 1968
    },
    {
      "name": "Basic_Wall_Single_brick_Masonry__test_bed___260147__1_0_normals",
      "componentType": 5126,
      "count": 28,
      "min": [
        -1,
        -1,
        -1
      ],
      "max": [
        1,
        1,
        1
      ],
      "type": "VEC3",
      "bufferView": 1,
      "byteOffset": 1968
    },
    {
      "name": "Basic_Wall_Single_brick_Masonry__test_bed___260147__1_0_texcoords",
      "componentType": 5126,
      "count": 28,
      "min": [
        -1.131889820098877,
        -5.528871536254883
      ],
      "max": [
        1.131889820098877,
        1.1640419960021973
      ],
      "type": "VEC2",
      "bufferView": 2,
      "byteOffset": 1312
    },
    {
      "name": "Basic_Wall_Single_brick_Masonry__test_bed___260147__1_0_indices",
      "componentType": 5123,
      "count": 48,
      "min": [
        0
      ],
      "max": [
        27
      ],
      "type": "SCALAR",
      "bufferView": 3,
      "byteOffset": 576
    },
    {
      "name": "Basic_Wall_Single_brick_Masonry__test_bed___260486__1_0_positions",
      "componentType": 5126,
      "count": 24,
      "min": [
        -1.4507818222045898,
        0,
        -2.787903070449829
      ],
      "max": [
        -1.350781798362732,
        1.6699999570846558,
        -2.2779030799865723
      ],
      "type": "VEC3",
      "bufferView": 0,
      "byteOffset": 2304
    },
    {
      "name": "Basic_Wall_Single_brick_Masonry__test_bed___260486__1_0_normals",
      "componentType": 5126,
      "count": 24,
      "min": [
        -1,
        -1,
        -1
      ],
      "max": [
        1,
        1,
        1
      ],
      "type": "VEC3",
      "bufferView": 1,
      "byteOffset": 2304
    },
    {
      "name": "Basic_Wall_Single_brick_Masonry__test_bed___260486__1_0_texcoords",
      "componentType": 5126,
      "count": 24,
      "min": [
        -1.6732286214828491,
        -4.479002475738525
      ],
      "max": [
        1.6732286214828491,
        1.1640419960021973
      ],
      "type": "VEC2",
      "bufferView": 2,
      "byteOffset": 1536
    },
    {
      "name": "Basic_Wall_Single_brick_Masonry__test_bed___260486__1_0_indices",
      "componentType": 5123,
      "count": 36,
      "min": [
        0
      ],
      "max": [
        23
      ],
      "type": "SCALAR",
      "bufferView": 3,
      "byteOffset": 672
    },
    {
      "name": "Basic_Wall_Single_brick_Masonry__test_bed___260943__1_0_positions",
      "componentType": 5126,
      "count": 36,
      "min": [
        -1.4507818222045898,
        0,
        -3.4329030513763428
      ],
      "max": [
        -1.350781798362732,
        1.9900000095367432,
        -2.787903070449829
      ],
      "type": "VEC3",
      "bufferView": 0,
      "byteOffset": 2592
    },
    {
      "name": "Basic_Wall_Single_brick_Masonry__test_bed___260943__1_0_normals",
      "componentType": 5126,
      "count": 36,
      "min": [
        -1,
        -1,
        -1
      ],
      "max": [
        1,
        1,
        1
      ],
      "type": "VEC3",
      "bufferView": 1,
      "byteOffset": 2592
    },
    {
      "name": "Basic_Wall_Single_brick_Masonry__test_bed___260943__1_0_texcoords",
      "componentType": 5126,
      "count": 36,
      "min": [
        -2.1161415576934814,
        -5.528871536254883
      ],
      "max": [
        2.1161417961120605,
        1.1640419960021973
      ],
      "type": "VEC2",
      "bufferView": 2,
      "byteOffset": 1728
    },
    {
      "name": "Basic_Wall_Single_brick_Masonry__test_bed___260943__1_0_indices",
      "componentType": 5123,
      "count": 72,
      "min": [
        0
      ],
      "max": [
        35
      ],
      "type": "SCALAR",
      "bufferView": 3,
      "byteOffset": 744
    },
    {
      "name": "Basic_Wall_Single_brick_Masonry__test_bed___261943__1_0_positions",
      "componentType": 5126,
      "count": 32,
      "min": [
        1.5792182683944702,
        0,
        -3.4329030513763428
      ],
      "max": [
        2.1492183208465576,
        1.9900000095367432,
        -3.3329029083251953
      ],
      "type": "VEC3",
      "bufferView": 0,
      "byteOffset": 3024
    },
    {
      "name": "Basic_Wall_Single_brick_Masonry__test_bed___261943__1_0_normals",
      "componentType": 5126,
      "count": 32,
      "min": [
        -1,
        -1,
        -1
      ],
      "max": [
        1,
        1,
        1
      ],
      "type": "VEC3",
      "bufferView": 1,
      "byteOffset": 3024
    },
    {
      "name": "Basic_Wall_Single_brick_Masonry__test_bed___261943__1_0_texcoords",
      "componentType": 5126,
      "count": 32,
      "min": [
        -1.870078682899475,
        -5.528871536254883
      ],
      "max": [
        1.870078682899475,
        1.1640419960021973
      ],
      "type": "VEC2",
      "bufferView": 2,
      "byteOffset": 2016
    },
    {
      "name": "Basic_Wall_Single_brick_Masonry__test_bed___261943__1_0_indices",
      "componentType": 5123,
      "count": 60,
      "min": [
        0
      ],
      "max": [
        31
      ],
      "type": "SCALAR",
      "bufferView": 3,
      "byteOffset": 888
    },
    {
      "name": "Basic_Wall_Single_brick_Masonry__test_bed___262286__1_0_positions",
      "componentType": 5126,
      "count": 24,
      "min": [
        0.9792183041572571,
        0,
        -3.4329030513763428
      ],
      "max": [
        1.5792182683944702,
        1.5500000715255737,
        -3.3329029083251953
      ],
      "type": "VEC3",
      "bufferView": 0,
      "byteOffset": 3408
    },
    {
      "name": "Basic_Wall_Single_brick_Masonry__test_bed___262286__1_0_normals",
      "componentType": 5126,
      "count": 24,
      "min": [
        -1,
        -1,
        -1
      ],
      "max": [
        1,
        1,
        1
      ],
      "type": "VEC3",
      "bufferView": 1,
      "byteOffset": 3408
    },
    {
      "name": "Basic_Wall_Single_brick_Masonry__test_bed___262286__1_0_texcoords",
      "componentType": 5126,
      "count": 24,
      "min": [
        -1.9685038328170776,
        -4.085301876068115
      ],
      "max": [
        1.9685039520263672,
        1.1640419960021973
      ],
      "type": "VEC2",
      "bufferView": 2,
      "byteOffset": 2272
    },
    {
      "name": "Basic_Wall_Single_brick_Masonry__test_bed___262286__1_0_indices",
      "componentType": 5123,
      "count": 36,
      "min": [
        0
      ],
      "max": [
        23
      ],
      "type": "SCALAR",
      "bufferView": 3,
      "byteOffset": 1008
    }
  ],
  "asset": {
    "generator": "obj2gltf",
    "version": "2.0"
  },
  "buffers": [
    {
      "name": "TestBedAs-plannedModel(Recovery)-3DView-{3D}",
      "byteLength": 10936,
      "uri": "data:application/octet-stream;base64,"
    }
  ],
  "bufferViews": [
    {
      "name": "bufferView_0",
      "buffer": 0,
      "byteLength": 3696,
      "byteOffset": 0,
      "byteStride": 12,
      "target": 34962
    },
    {
      "name": "bufferView_1",
      "buffer": 0,
      "byteLength": 3696,
      "byteOffset": 3696,
      "byteStride": 12,
      "target": 34962
    },
    {
      "name": "bufferView_2",
      "buffer": 0,
      "byteLength": 2464,
      "byteOffset": 7392,
      "byteStride": 8,
      "target": 34962
    },
    {
      "name": "bufferView_3",
      "buffer": 0,
      "byteLength": 1080,
      "byteOffset": 9856,
      "target": 34963
    }
  ],
  "materials": [
    {
      "name": "wire_204204204",
      "pbrMetallicRoughness": {
        "baseColorFactor": [
          0.5,
          0.5,
          0.5,
          1
        ],
        "metallicFactor": 0,
        "roughnessFactor": 1
      },
      "emissiveFactor": [
        0,
        0,
        0
      ],
      "alphaMode": "OPAQUE",
      "doubleSided": false
    }
  ],
  "meshes": [
    {
      "name": "Basic_Wall_Single_brick_Masonry__test_bed___247658__1",
      "primitives": [
        {
          "attributes": {
            "POSITION": 0,
            "NORMAL": 1,
            "TEXCOORD_0": 2
          },
          "indices": 3,
          "material": 0,
          "mode": 4
        }
      ]
    },
    {
      "name": "Basic_Wall_Single_brick_Masonry__test_bed___247755__1",
      "primitives": [
        {
          "attributes": {
            "POSITION": 4,
            "NORMAL": 5,
            "TEXCOORD_0": 6
          },
          "indices": 7,
          "material": 0,
          "mode": 4
        }
      ]
    },
    {
      "name": "Rectangular_Column_Test_bed_column__248063__1",
      "primitives": [
        {
          "attributes": {
            "POSITION": 8,
            "NORMAL": 9,
            "TEXCOORD_0": 10
          },
          "indices": 11,
          "material": 0,
          "mode": 4
        }
      ]
    },
    {
      "name": "Rectangular_Column_Test_bed_column__248351__1",
      "primitives": [
        {
          "attributes": {
            "POSITION": 12,
            "NORMAL": 13,
            "TEXCOORD_0": 14
          },
          "indices": 15,
          "material": 0,
          "mode": 4
        }
      ]
    },
    {
      "name": "Rectangular_Column_Test_bed_column__255862__1",
      "primitives": [
        {
          "attributes": {
            "POSITION": 16,
            "NORMAL": 17,
            "TEXCOORD_0": 18
          },
          "indices": 19,
          "material": 0,
          "mode": 4
        }
      ]
    },
    {
      "name": "Basic_Wall_Single_brick_Masonry__test_bed___260147__1",
      "primitives": [
        {
          "attributes": {
            "POSITION": 20,
            "NORMAL": 21,
            "TEXCOORD_0": 22
          },
          "indices": 23,
          "material": 0,
          "mode": 4
        }
      ]
    },
    {
      "name": "Basic_Wall_Single_brick_Masonry__test_bed___260486__1",
      "primitives": [
        {
          "attributes": {
            "POSITION": 24,
            "NORMAL": 25,
            "TEXCOORD_0": 26
          },
          "indices": 27,
          "material": 0,
          "mode": 4
        }
      ]
    },
    {
      "name": "Basic_Wall_Single_brick_Masonry__test_bed___260943__1",
      "primitives": [
        {
          "attributes": {
            "POSITION": 28,
            "NORMAL": 29,
            "TEXCOORD_0": 30
          },
          "indices": 31,
          "material": 0,
          "mode": 4
        }
      ]
    },
    {
      "name": "Basic_Wall_Single_brick_Masonry__test_bed___261943__1",
      "primitives": [
        {
          "attributes": {
            "POSITION": 32,
            "NORMAL": 33,
            "TEXCOORD_0": 34
          },
          "indices": 35,
          "material": 0,
          "mode": 4
        }
      ]
    },
    {
      "name": "Basic_Wall_Single_brick_Masonry__test_bed___262286__1",
      "primitives": [
        {
          "attributes": {
            "POSITION": 36,
            "NORMAL": 37,
            "TEXCOORD_0": 38
          },
          "indices": 39,
          "material": 0,
          "mode": 4
        }
      ]
    }
  ],
  "nodes": [
    {
      "name": "Basic_Wall_Single_brick_Masonry__test_bed___247658_",
      "mesh": 0
    },
    {
      "name": "Basic_Wall_Single_brick_Masonry__test_bed___247755_",
      "mesh": 1
    },
    {
      "name": "Rectangular_Column_Test_bed_column__248063_",
      "mesh": 2
    },
    {
      "name": "Rectangular_Column_Test_bed_column__248351_",
      "mesh": 3
    },
    {
      "name": "Rectangular_Column_Test_bed_column__255862_",
      "mesh": 4
    },
    {
      "name": "Basic_Wall_Single_brick_Masonry__test_bed___260147_",
      "mesh": 5
    },
    {
      "name": "Basic_Wall_Single_brick_Masonry__test_bed___260486_",
      "mesh": 6
    },
    {
      "name": "Basic_Wall_Single_brick_Masonry__test_bed___260943_",
      "mesh": 7
    },
    {
      "name": "Basic_Wall_Single_brick_Masonry__test_bed___261943_",
      "mesh": 8
    },
    {
      "name": "Basic_Wall_Single_brick_Masonry__test_bed___262286_",
      "mesh": 9
    }
  ],
  "scene": 0,
  "scenes": [
    {
      "nodes": [
        0,
        1,
        2,
        3,
        4,
        5,
        6,
        7,
        8,
        9
      ]
    }
  ]
}
